<mxfile host="app.diagrams.net" modified="2023-03-26T02:33:47.333Z" agent="Mozilla/5.0 (Windows NT 10.0; Win64; x64) AppleWebKit/537.36 (KHTML, like Gecko) Chrome/111.0.0.0 Safari/537.36" etag="rHDvvmdRExT_8HMD5lOX" version="21.1.1" type="device">
  <diagram id="JC8BL4nsup9yCr4_APGE" name="E-R">
    <mxGraphModel dx="1202" dy="980" grid="0" gridSize="10" guides="1" tooltips="1" connect="1" arrows="1" fold="1" page="0" pageScale="1" pageWidth="827" pageHeight="1169" math="0" shadow="0">
      <root>
        <mxCell id="0" />
        <mxCell id="1" parent="0" />
        <mxCell id="Wl8H_iPrFYhx-jgxEYBW-3" value="manages" style="shape=rhombus;perimeter=rhombusPerimeter;whiteSpace=wrap;html=1;align=center;fontColor=#ff0000;" vertex="1" parent="1">
          <mxGeometry x="556" y="-17" width="78" height="60" as="geometry" />
        </mxCell>
        <mxCell id="Wl8H_iPrFYhx-jgxEYBW-4" value="" style="endArrow=none;html=1;rounded=0;entryX=0.563;entryY=-0.017;entryDx=0;entryDy=0;entryPerimeter=0;exitX=1;exitY=0.5;exitDx=0;exitDy=0;" edge="1" parent="1" source="Wl8H_iPrFYhx-jgxEYBW-3" target="vkApriOtjKxWbsv6Z0I2-6">
          <mxGeometry width="50" height="50" relative="1" as="geometry">
            <mxPoint x="215" y="219" as="sourcePoint" />
            <mxPoint x="363" y="138" as="targetPoint" />
          </mxGeometry>
        </mxCell>
        <mxCell id="Wl8H_iPrFYhx-jgxEYBW-5" value="" style="endArrow=none;html=1;rounded=0;exitX=0;exitY=0.5;exitDx=0;exitDy=0;entryX=1;entryY=0.5;entryDx=0;entryDy=0;shape=link;" edge="1" parent="1" source="Wl8H_iPrFYhx-jgxEYBW-3" target="Wl8H_iPrFYhx-jgxEYBW-6">
          <mxGeometry width="50" height="50" relative="1" as="geometry">
            <mxPoint x="367" y="222" as="sourcePoint" />
            <mxPoint x="344" y="249" as="targetPoint" />
          </mxGeometry>
        </mxCell>
        <mxCell id="Wl8H_iPrFYhx-jgxEYBW-6" value="department" style="whiteSpace=wrap;html=1;align=center;" vertex="1" parent="1">
          <mxGeometry x="320" y="-20" width="100" height="40" as="geometry" />
        </mxCell>
        <mxCell id="Wl8H_iPrFYhx-jgxEYBW-7" value="number" style="ellipse;whiteSpace=wrap;html=1;align=center;fontStyle=4;" vertex="1" parent="1">
          <mxGeometry x="184" y="-150.5" width="80" height="40" as="geometry" />
        </mxCell>
        <mxCell id="Wl8H_iPrFYhx-jgxEYBW-8" value="name" style="ellipse;whiteSpace=wrap;html=1;align=center;fontStyle=4;" vertex="1" parent="1">
          <mxGeometry x="192" y="-97.5" width="60" height="40" as="geometry" />
        </mxCell>
        <mxCell id="Wl8H_iPrFYhx-jgxEYBW-9" value="locations" style="ellipse;shape=doubleEllipse;margin=3;whiteSpace=wrap;html=1;align=center;" vertex="1" parent="1">
          <mxGeometry x="180" y="8" width="80" height="40" as="geometry" />
        </mxCell>
        <mxCell id="Wl8H_iPrFYhx-jgxEYBW-10" value="manager_ssn" style="ellipse;whiteSpace=wrap;html=1;align=center;strokeColor=#2255ec;fontColor=#ff0000;" vertex="1" parent="1">
          <mxGeometry x="184" y="-44.5" width="80" height="40" as="geometry" />
        </mxCell>
        <mxCell id="Wl8H_iPrFYhx-jgxEYBW-11" value="manager_start_date" style="ellipse;whiteSpace=wrap;html=1;align=center;fontColor=#ff0000;strokeColor=#4128fb;" vertex="1" parent="1">
          <mxGeometry x="154" y="62.5" width="140" height="40" as="geometry" />
        </mxCell>
        <mxCell id="Wl8H_iPrFYhx-jgxEYBW-12" value="" style="endArrow=none;html=1;rounded=0;exitX=0.592;exitY=1.063;exitDx=0;exitDy=0;exitPerimeter=0;" edge="1" parent="1" source="Wl8H_iPrFYhx-jgxEYBW-7" target="Wl8H_iPrFYhx-jgxEYBW-6">
          <mxGeometry width="50" height="50" relative="1" as="geometry">
            <mxPoint x="170" y="120" as="sourcePoint" />
            <mxPoint x="220" y="70" as="targetPoint" />
          </mxGeometry>
        </mxCell>
        <mxCell id="Wl8H_iPrFYhx-jgxEYBW-13" value="" style="endArrow=none;html=1;rounded=0;exitX=1;exitY=1;exitDx=0;exitDy=0;entryX=0;entryY=0;entryDx=0;entryDy=0;" edge="1" parent="1" source="Wl8H_iPrFYhx-jgxEYBW-8" target="Wl8H_iPrFYhx-jgxEYBW-6">
          <mxGeometry width="50" height="50" relative="1" as="geometry">
            <mxPoint x="100" y="130" as="sourcePoint" />
            <mxPoint x="230" y="80" as="targetPoint" />
          </mxGeometry>
        </mxCell>
        <mxCell id="Wl8H_iPrFYhx-jgxEYBW-14" value="" style="endArrow=none;html=1;rounded=0;exitX=1;exitY=0.5;exitDx=0;exitDy=0;entryX=0;entryY=0.25;entryDx=0;entryDy=0;" edge="1" parent="1" source="Wl8H_iPrFYhx-jgxEYBW-10" target="Wl8H_iPrFYhx-jgxEYBW-6">
          <mxGeometry width="50" height="50" relative="1" as="geometry">
            <mxPoint x="130" y="160" as="sourcePoint" />
            <mxPoint x="260" y="110" as="targetPoint" />
          </mxGeometry>
        </mxCell>
        <mxCell id="Wl8H_iPrFYhx-jgxEYBW-15" value="" style="endArrow=none;html=1;rounded=0;exitX=1;exitY=0.5;exitDx=0;exitDy=0;entryX=0;entryY=0.5;entryDx=0;entryDy=0;" edge="1" parent="1" source="Wl8H_iPrFYhx-jgxEYBW-9" target="Wl8H_iPrFYhx-jgxEYBW-6">
          <mxGeometry width="50" height="50" relative="1" as="geometry">
            <mxPoint x="140" y="170" as="sourcePoint" />
            <mxPoint x="270" y="120" as="targetPoint" />
          </mxGeometry>
        </mxCell>
        <mxCell id="Wl8H_iPrFYhx-jgxEYBW-16" value="" style="endArrow=none;html=1;rounded=0;exitX=0;exitY=1;exitDx=0;exitDy=0;" edge="1" parent="1" source="Wl8H_iPrFYhx-jgxEYBW-6" target="Wl8H_iPrFYhx-jgxEYBW-11">
          <mxGeometry width="50" height="50" relative="1" as="geometry">
            <mxPoint x="150" y="180" as="sourcePoint" />
            <mxPoint x="280" y="130" as="targetPoint" />
          </mxGeometry>
        </mxCell>
        <mxCell id="Wl8H_iPrFYhx-jgxEYBW-18" value="&lt;div&gt;1&lt;/div&gt;" style="text;html=1;strokeColor=none;fillColor=none;align=left;verticalAlign=middle;whiteSpace=wrap;rounded=0;fontColor=#ff0000;" vertex="1" parent="1">
          <mxGeometry x="718" y="58" width="19" height="14" as="geometry" />
        </mxCell>
        <mxCell id="Wl8H_iPrFYhx-jgxEYBW-19" value="&lt;div&gt;1&lt;/div&gt;" style="text;html=1;strokeColor=none;fillColor=none;align=left;verticalAlign=middle;whiteSpace=wrap;rounded=0;fontColor=#ff0000;" vertex="1" parent="1">
          <mxGeometry x="476" y="16" width="13" height="16" as="geometry" />
        </mxCell>
        <mxCell id="Wl8H_iPrFYhx-jgxEYBW-20" value="start_date" style="ellipse;whiteSpace=wrap;html=1;align=center;fontColor=#ff0000;strokeColor=#2b39f7;" vertex="1" parent="1">
          <mxGeometry x="612" y="-54" width="90" height="40" as="geometry" />
        </mxCell>
        <mxCell id="Wl8H_iPrFYhx-jgxEYBW-21" value="" style="endArrow=none;html=1;rounded=0;exitX=0.5;exitY=1;exitDx=0;exitDy=0;entryX=1;entryY=0;entryDx=0;entryDy=0;" edge="1" parent="1" source="Wl8H_iPrFYhx-jgxEYBW-20" target="Wl8H_iPrFYhx-jgxEYBW-3">
          <mxGeometry width="50" height="50" relative="1" as="geometry">
            <mxPoint x="280" y="130" as="sourcePoint" />
            <mxPoint x="300" y="80" as="targetPoint" />
          </mxGeometry>
        </mxCell>
        <mxCell id="Wl8H_iPrFYhx-jgxEYBW-22" value="manager_ssn" style="ellipse;whiteSpace=wrap;html=1;align=center;strokeColor=#2255ec;fontColor=#ff0000;" vertex="1" parent="1">
          <mxGeometry x="526" y="-57" width="80" height="40" as="geometry" />
        </mxCell>
        <mxCell id="Wl8H_iPrFYhx-jgxEYBW-23" value="" style="endArrow=none;html=1;rounded=0;exitX=0.5;exitY=1;exitDx=0;exitDy=0;entryX=0;entryY=0;entryDx=0;entryDy=0;" edge="1" parent="1" source="Wl8H_iPrFYhx-jgxEYBW-22" target="Wl8H_iPrFYhx-jgxEYBW-3">
          <mxGeometry width="50" height="50" relative="1" as="geometry">
            <mxPoint x="132" y="468" as="sourcePoint" />
            <mxPoint x="318" y="380" as="targetPoint" />
          </mxGeometry>
        </mxCell>
        <mxCell id="x9lgvti6asZpMGQ8VtIj-3" value="manages" style="shape=rhombus;perimeter=rhombusPerimeter;whiteSpace=wrap;html=1;align=center;fontColor=#ff0000;" vertex="1" parent="1">
          <mxGeometry x="430" y="-136" width="78" height="60" as="geometry" />
        </mxCell>
        <mxCell id="x9lgvti6asZpMGQ8VtIj-5" value="" style="endArrow=none;html=1;rounded=0;exitX=0.5;exitY=0;exitDx=0;exitDy=0;" edge="1" parent="1" source="Wl8H_iPrFYhx-jgxEYBW-6">
          <mxGeometry width="50" height="50" relative="1" as="geometry">
            <mxPoint x="184" y="-254" as="sourcePoint" />
            <mxPoint x="428" y="-99" as="targetPoint" />
          </mxGeometry>
        </mxCell>
        <mxCell id="x9lgvti6asZpMGQ8VtIj-6" value="project" style="whiteSpace=wrap;html=1;align=center;" vertex="1" parent="1">
          <mxGeometry x="672" y="-132" width="100" height="40" as="geometry" />
        </mxCell>
        <mxCell id="x9lgvti6asZpMGQ8VtIj-7" value="number" style="ellipse;whiteSpace=wrap;html=1;align=center;fontStyle=4;" vertex="1" parent="1">
          <mxGeometry x="576" y="-210" width="80" height="40" as="geometry" />
        </mxCell>
        <mxCell id="x9lgvti6asZpMGQ8VtIj-8" value="name" style="ellipse;whiteSpace=wrap;html=1;align=center;fontStyle=4;" vertex="1" parent="1">
          <mxGeometry x="670" y="-210" width="60" height="40" as="geometry" />
        </mxCell>
        <mxCell id="x9lgvti6asZpMGQ8VtIj-9" value="location" style="ellipse;whiteSpace=wrap;html=1;align=center;" vertex="1" parent="1">
          <mxGeometry x="736" y="-212" width="80" height="40" as="geometry" />
        </mxCell>
        <mxCell id="x9lgvti6asZpMGQ8VtIj-10" value="department_number" style="ellipse;whiteSpace=wrap;html=1;align=center;strokeColor=#213af2;fontColor=#ff0000;" vertex="1" parent="1">
          <mxGeometry x="802.5" y="-162" width="140" height="40" as="geometry" />
        </mxCell>
        <mxCell id="x9lgvti6asZpMGQ8VtIj-11" value="" style="endArrow=none;html=1;rounded=0;exitX=0.5;exitY=1;exitDx=0;exitDy=0;entryX=0;entryY=0;entryDx=0;entryDy=0;" edge="1" parent="1" source="x9lgvti6asZpMGQ8VtIj-7" target="x9lgvti6asZpMGQ8VtIj-6">
          <mxGeometry width="50" height="50" relative="1" as="geometry">
            <mxPoint x="796" y="-33" as="sourcePoint" />
            <mxPoint x="846" y="-83" as="targetPoint" />
          </mxGeometry>
        </mxCell>
        <mxCell id="x9lgvti6asZpMGQ8VtIj-12" value="" style="endArrow=none;html=1;rounded=0;exitX=0.5;exitY=1;exitDx=0;exitDy=0;entryX=0.25;entryY=0;entryDx=0;entryDy=0;" edge="1" parent="1" source="x9lgvti6asZpMGQ8VtIj-8" target="x9lgvti6asZpMGQ8VtIj-6">
          <mxGeometry width="50" height="50" relative="1" as="geometry">
            <mxPoint x="726" y="-23" as="sourcePoint" />
            <mxPoint x="856" y="-73" as="targetPoint" />
          </mxGeometry>
        </mxCell>
        <mxCell id="x9lgvti6asZpMGQ8VtIj-13" value="" style="endArrow=none;html=1;rounded=0;exitX=0.5;exitY=1;exitDx=0;exitDy=0;entryX=0.75;entryY=0;entryDx=0;entryDy=0;" edge="1" parent="1" source="x9lgvti6asZpMGQ8VtIj-9" target="x9lgvti6asZpMGQ8VtIj-6">
          <mxGeometry width="50" height="50" relative="1" as="geometry">
            <mxPoint x="756" y="7" as="sourcePoint" />
            <mxPoint x="882" y="-124" as="targetPoint" />
          </mxGeometry>
        </mxCell>
        <mxCell id="x9lgvti6asZpMGQ8VtIj-14" value="" style="endArrow=none;html=1;rounded=0;exitX=1;exitY=0.5;exitDx=0;exitDy=0;entryX=0;entryY=1;entryDx=0;entryDy=0;" edge="1" parent="1" source="x9lgvti6asZpMGQ8VtIj-6" target="x9lgvti6asZpMGQ8VtIj-10">
          <mxGeometry width="50" height="50" relative="1" as="geometry">
            <mxPoint x="776" y="27" as="sourcePoint" />
            <mxPoint x="906" y="-23" as="targetPoint" />
          </mxGeometry>
        </mxCell>
        <mxCell id="x9lgvti6asZpMGQ8VtIj-15" value="&lt;div&gt;1&lt;/div&gt;" style="text;html=1;strokeColor=none;fillColor=none;align=left;verticalAlign=middle;whiteSpace=wrap;rounded=0;fontColor=#ff0000;" vertex="1" parent="1">
          <mxGeometry x="360.5" y="-44" width="19" height="14" as="geometry" />
        </mxCell>
        <mxCell id="x9lgvti6asZpMGQ8VtIj-16" value="&lt;div&gt;N&lt;/div&gt;" style="text;html=1;strokeColor=none;fillColor=none;align=left;verticalAlign=middle;whiteSpace=wrap;rounded=0;fontColor=#ff0000;" vertex="1" parent="1">
          <mxGeometry x="579.5" y="-130" width="13" height="16" as="geometry" />
        </mxCell>
        <mxCell id="x9lgvti6asZpMGQ8VtIj-17" value="" style="endArrow=none;html=1;rounded=0;entryX=0;entryY=0.5;entryDx=0;entryDy=0;shape=link;exitX=1;exitY=0.5;exitDx=0;exitDy=0;" edge="1" parent="1" source="x9lgvti6asZpMGQ8VtIj-3" target="x9lgvti6asZpMGQ8VtIj-6">
          <mxGeometry width="50" height="50" relative="1" as="geometry">
            <mxPoint x="590" y="-108" as="sourcePoint" />
            <mxPoint x="413" y="-151" as="targetPoint" />
          </mxGeometry>
        </mxCell>
        <mxCell id="vkApriOtjKxWbsv6Z0I2-3" value="works_for" style="shape=rhombus;perimeter=rhombusPerimeter;whiteSpace=wrap;html=1;align=center;fontColor=#ff0000;" vertex="1" parent="1">
          <mxGeometry x="514" y="67.5" width="78" height="60" as="geometry" />
        </mxCell>
        <mxCell id="vkApriOtjKxWbsv6Z0I2-6" value="employee" style="whiteSpace=wrap;html=1;align=center;" vertex="1" parent="1">
          <mxGeometry x="702" y="102.5" width="100" height="40" as="geometry" />
        </mxCell>
        <mxCell id="vkApriOtjKxWbsv6Z0I2-7" value="SSN" style="ellipse;whiteSpace=wrap;html=1;align=center;fontStyle=4;" vertex="1" parent="1">
          <mxGeometry x="532" y="197.5" width="60" height="40" as="geometry" />
        </mxCell>
        <mxCell id="vkApriOtjKxWbsv6Z0I2-8" value="name" style="ellipse;whiteSpace=wrap;html=1;align=center;" vertex="1" parent="1">
          <mxGeometry x="602" y="197.5" width="50" height="40" as="geometry" />
        </mxCell>
        <mxCell id="vkApriOtjKxWbsv6Z0I2-9" value="department_number" style="ellipse;whiteSpace=wrap;html=1;align=center;strokeColor=#264de8;fontColor=#ff0000;" vertex="1" parent="1">
          <mxGeometry x="902" y="197.5" width="116.5" height="40" as="geometry" />
        </mxCell>
        <mxCell id="vkApriOtjKxWbsv6Z0I2-10" value="" style="endArrow=none;html=1;rounded=0;exitX=0.5;exitY=0;exitDx=0;exitDy=0;entryX=0;entryY=1;entryDx=0;entryDy=0;" edge="1" parent="1" source="vkApriOtjKxWbsv6Z0I2-7" target="vkApriOtjKxWbsv6Z0I2-6">
          <mxGeometry width="50" height="50" relative="1" as="geometry">
            <mxPoint x="632" y="197.5" as="sourcePoint" />
            <mxPoint x="682" y="147.5" as="targetPoint" />
          </mxGeometry>
        </mxCell>
        <mxCell id="vkApriOtjKxWbsv6Z0I2-11" value="" style="endArrow=none;html=1;rounded=0;exitX=0.599;exitY=0.021;exitDx=0;exitDy=0;exitPerimeter=0;entryX=0.5;entryY=1;entryDx=0;entryDy=0;" edge="1" parent="1" source="vkApriOtjKxWbsv6Z0I2-19" target="vkApriOtjKxWbsv6Z0I2-6">
          <mxGeometry width="50" height="50" relative="1" as="geometry">
            <mxPoint x="642" y="197.5" as="sourcePoint" />
            <mxPoint x="812" y="157.5" as="targetPoint" />
          </mxGeometry>
        </mxCell>
        <mxCell id="vkApriOtjKxWbsv6Z0I2-12" value="" style="endArrow=none;html=1;rounded=0;exitX=0.5;exitY=0;exitDx=0;exitDy=0;entryX=0.188;entryY=0.981;entryDx=0;entryDy=0;entryPerimeter=0;" edge="1" parent="1" source="vkApriOtjKxWbsv6Z0I2-8" target="vkApriOtjKxWbsv6Z0I2-6">
          <mxGeometry width="50" height="50" relative="1" as="geometry">
            <mxPoint x="592" y="237.5" as="sourcePoint" />
            <mxPoint x="722" y="187.5" as="targetPoint" />
          </mxGeometry>
        </mxCell>
        <mxCell id="vkApriOtjKxWbsv6Z0I2-13" value="" style="endArrow=none;html=1;rounded=0;exitX=0;exitY=0.5;exitDx=0;exitDy=0;entryX=1;entryY=1;entryDx=0;entryDy=0;" edge="1" parent="1" target="vkApriOtjKxWbsv6Z0I2-6">
          <mxGeometry width="50" height="50" relative="1" as="geometry">
            <mxPoint x="954.5" y="162.5" as="sourcePoint" />
            <mxPoint x="732" y="197.5" as="targetPoint" />
          </mxGeometry>
        </mxCell>
        <mxCell id="vkApriOtjKxWbsv6Z0I2-14" value="" style="endArrow=none;html=1;rounded=0;entryX=0.5;entryY=0;entryDx=0;entryDy=0;exitX=1;exitY=1;exitDx=0;exitDy=0;" edge="1" parent="1" target="vkApriOtjKxWbsv6Z0I2-9" source="vkApriOtjKxWbsv6Z0I2-6">
          <mxGeometry width="50" height="50" relative="1" as="geometry">
            <mxPoint x="800" y="145" as="sourcePoint" />
            <mxPoint x="742" y="207.5" as="targetPoint" />
          </mxGeometry>
        </mxCell>
        <mxCell id="vkApriOtjKxWbsv6Z0I2-15" value="Mname" style="ellipse;whiteSpace=wrap;html=1;align=center;" vertex="1" parent="1">
          <mxGeometry x="592" y="257.5" width="60" height="40" as="geometry" />
        </mxCell>
        <mxCell id="vkApriOtjKxWbsv6Z0I2-16" value="Lname" style="ellipse;whiteSpace=wrap;html=1;align=center;" vertex="1" parent="1">
          <mxGeometry x="672" y="257.5" width="56" height="40" as="geometry" />
        </mxCell>
        <mxCell id="vkApriOtjKxWbsv6Z0I2-17" value="Fname" style="ellipse;whiteSpace=wrap;html=1;align=center;" vertex="1" parent="1">
          <mxGeometry x="526" y="257.5" width="50" height="40" as="geometry" />
        </mxCell>
        <mxCell id="vkApriOtjKxWbsv6Z0I2-18" value="sex" style="ellipse;whiteSpace=wrap;html=1;align=center;" vertex="1" parent="1">
          <mxGeometry x="662" y="197.5" width="50" height="40" as="geometry" />
        </mxCell>
        <mxCell id="vkApriOtjKxWbsv6Z0I2-19" value="Bdate" style="ellipse;whiteSpace=wrap;html=1;align=center;" vertex="1" parent="1">
          <mxGeometry x="722" y="197.5" width="50" height="40" as="geometry" />
        </mxCell>
        <mxCell id="vkApriOtjKxWbsv6Z0I2-20" value="addr" style="ellipse;whiteSpace=wrap;html=1;align=center;" vertex="1" parent="1">
          <mxGeometry x="782" y="197.5" width="50" height="40" as="geometry" />
        </mxCell>
        <mxCell id="vkApriOtjKxWbsv6Z0I2-21" value="salary" style="ellipse;whiteSpace=wrap;html=1;align=center;" vertex="1" parent="1">
          <mxGeometry x="842" y="197.5" width="50" height="40" as="geometry" />
        </mxCell>
        <mxCell id="vkApriOtjKxWbsv6Z0I2-22" value="hours" style="ellipse;whiteSpace=wrap;html=1;align=center;" vertex="1" parent="1">
          <mxGeometry x="870" y="-46" width="50" height="40" as="geometry" />
        </mxCell>
        <mxCell id="vkApriOtjKxWbsv6Z0I2-23" value="project_number" style="ellipse;whiteSpace=wrap;html=1;align=center;fontColor=#ff0000;" vertex="1" parent="1">
          <mxGeometry x="952" y="142.5" width="105" height="40" as="geometry" />
        </mxCell>
        <mxCell id="vkApriOtjKxWbsv6Z0I2-25" value="" style="endArrow=none;html=1;rounded=0;exitX=0.602;exitY=0.044;exitDx=0;exitDy=0;entryX=0.25;entryY=1;entryDx=0;entryDy=0;exitPerimeter=0;" edge="1" parent="1" source="vkApriOtjKxWbsv6Z0I2-18" target="vkApriOtjKxWbsv6Z0I2-6">
          <mxGeometry width="50" height="50" relative="1" as="geometry">
            <mxPoint x="572" y="207.5" as="sourcePoint" />
            <mxPoint x="782" y="167.5" as="targetPoint" />
          </mxGeometry>
        </mxCell>
        <mxCell id="vkApriOtjKxWbsv6Z0I2-26" value="" style="endArrow=none;html=1;rounded=0;entryX=0.5;entryY=1;entryDx=0;entryDy=0;" edge="1" parent="1" source="vkApriOtjKxWbsv6Z0I2-20" target="vkApriOtjKxWbsv6Z0I2-6">
          <mxGeometry width="50" height="50" relative="1" as="geometry">
            <mxPoint x="582" y="217.5" as="sourcePoint" />
            <mxPoint x="792" y="177.5" as="targetPoint" />
          </mxGeometry>
        </mxCell>
        <mxCell id="vkApriOtjKxWbsv6Z0I2-27" value="" style="endArrow=none;html=1;rounded=0;exitX=0.5;exitY=0;exitDx=0;exitDy=0;entryX=0;entryY=1;entryDx=0;entryDy=0;" edge="1" parent="1" source="vkApriOtjKxWbsv6Z0I2-17" target="vkApriOtjKxWbsv6Z0I2-8">
          <mxGeometry width="50" height="50" relative="1" as="geometry">
            <mxPoint x="592" y="227.5" as="sourcePoint" />
            <mxPoint x="802" y="187.5" as="targetPoint" />
          </mxGeometry>
        </mxCell>
        <mxCell id="vkApriOtjKxWbsv6Z0I2-28" value="" style="endArrow=none;html=1;rounded=0;exitX=0.5;exitY=0;exitDx=0;exitDy=0;entryX=0.5;entryY=1;entryDx=0;entryDy=0;" edge="1" parent="1" source="vkApriOtjKxWbsv6Z0I2-15" target="vkApriOtjKxWbsv6Z0I2-8">
          <mxGeometry width="50" height="50" relative="1" as="geometry">
            <mxPoint x="602" y="237.5" as="sourcePoint" />
            <mxPoint x="812" y="197.5" as="targetPoint" />
          </mxGeometry>
        </mxCell>
        <mxCell id="vkApriOtjKxWbsv6Z0I2-29" value="" style="endArrow=none;html=1;rounded=0;exitX=1;exitY=1;exitDx=0;exitDy=0;entryX=0.5;entryY=0;entryDx=0;entryDy=0;" edge="1" parent="1" source="vkApriOtjKxWbsv6Z0I2-8" target="vkApriOtjKxWbsv6Z0I2-16">
          <mxGeometry width="50" height="50" relative="1" as="geometry">
            <mxPoint x="612" y="247.5" as="sourcePoint" />
            <mxPoint x="822" y="207.5" as="targetPoint" />
          </mxGeometry>
        </mxCell>
        <mxCell id="vkApriOtjKxWbsv6Z0I2-30" value="" style="endArrow=none;html=1;rounded=0;exitX=0;exitY=0.5;exitDx=0;exitDy=0;entryX=1;entryY=0;entryDx=0;entryDy=0;" edge="1" parent="1" source="vkApriOtjKxWbsv6Z0I2-22" target="vkApriOtjKxWbsv6Z0I2-35">
          <mxGeometry width="50" height="50" relative="1" as="geometry">
            <mxPoint x="755" y="214.5" as="sourcePoint" />
            <mxPoint x="965" y="174.5" as="targetPoint" />
          </mxGeometry>
        </mxCell>
        <mxCell id="vkApriOtjKxWbsv6Z0I2-31" value="" style="endArrow=none;html=1;rounded=0;entryX=0.75;entryY=1;entryDx=0;entryDy=0;" edge="1" parent="1" target="vkApriOtjKxWbsv6Z0I2-6">
          <mxGeometry width="50" height="50" relative="1" as="geometry">
            <mxPoint x="862" y="197.5" as="sourcePoint" />
            <mxPoint x="852" y="237.5" as="targetPoint" />
          </mxGeometry>
        </mxCell>
        <mxCell id="vkApriOtjKxWbsv6Z0I2-35" value="works_on" style="shape=rhombus;perimeter=rhombusPerimeter;whiteSpace=wrap;html=1;align=center;fontColor=#ff0000;" vertex="1" parent="1">
          <mxGeometry x="768" y="-24" width="78" height="60" as="geometry" />
        </mxCell>
        <mxCell id="vkApriOtjKxWbsv6Z0I2-37" value="" style="endArrow=none;html=1;rounded=0;entryX=0.5;entryY=1;entryDx=0;entryDy=0;exitX=0.75;exitY=0;exitDx=0;exitDy=0;" edge="1" parent="1" source="vkApriOtjKxWbsv6Z0I2-6" target="vkApriOtjKxWbsv6Z0I2-35">
          <mxGeometry width="50" height="50" relative="1" as="geometry">
            <mxPoint x="915" y="301.5" as="sourcePoint" />
            <mxPoint x="952" y="303" as="targetPoint" />
          </mxGeometry>
        </mxCell>
        <mxCell id="vkApriOtjKxWbsv6Z0I2-39" value="supersion" style="shape=rhombus;perimeter=rhombusPerimeter;whiteSpace=wrap;html=1;align=center;fontColor=#ff0000;" vertex="1" parent="1">
          <mxGeometry x="920" y="67.5" width="78" height="60" as="geometry" />
        </mxCell>
        <mxCell id="vkApriOtjKxWbsv6Z0I2-40" value="" style="endArrow=none;html=1;rounded=0;exitX=1;exitY=0.25;exitDx=0;exitDy=0;entryX=0;entryY=0;entryDx=0;entryDy=0;" edge="1" parent="1" source="vkApriOtjKxWbsv6Z0I2-6" target="vkApriOtjKxWbsv6Z0I2-39">
          <mxGeometry width="50" height="50" relative="1" as="geometry">
            <mxPoint x="815" y="367" as="sourcePoint" />
            <mxPoint x="939" y="387" as="targetPoint" />
          </mxGeometry>
        </mxCell>
        <mxCell id="vkApriOtjKxWbsv6Z0I2-41" value="" style="endArrow=none;html=1;rounded=0;exitX=1;exitY=0.75;exitDx=0;exitDy=0;entryX=0;entryY=1;entryDx=0;entryDy=0;" edge="1" parent="1" source="vkApriOtjKxWbsv6Z0I2-6" target="vkApriOtjKxWbsv6Z0I2-39">
          <mxGeometry width="50" height="50" relative="1" as="geometry">
            <mxPoint x="815" y="387" as="sourcePoint" />
            <mxPoint x="881" y="372" as="targetPoint" />
          </mxGeometry>
        </mxCell>
        <mxCell id="vkApriOtjKxWbsv6Z0I2-42" value="&lt;div&gt;supervisior&lt;/div&gt;" style="text;html=1;strokeColor=none;fillColor=none;align=left;verticalAlign=middle;whiteSpace=wrap;rounded=0;" vertex="1" parent="1">
          <mxGeometry x="825" y="66" width="71" height="34" as="geometry" />
        </mxCell>
        <mxCell id="vkApriOtjKxWbsv6Z0I2-43" value="&lt;div&gt;supervisee&lt;/div&gt;" style="text;html=1;strokeColor=none;fillColor=none;align=left;verticalAlign=middle;whiteSpace=wrap;rounded=0;" vertex="1" parent="1">
          <mxGeometry x="851" y="116" width="71" height="34" as="geometry" />
        </mxCell>
        <mxCell id="vkApriOtjKxWbsv6Z0I2-44" value="&lt;div&gt;1&lt;/div&gt;" style="text;html=1;strokeColor=none;fillColor=none;align=left;verticalAlign=middle;whiteSpace=wrap;rounded=0;fontColor=#ff0000;" vertex="1" parent="1">
          <mxGeometry x="885" y="76" width="19" height="14" as="geometry" />
        </mxCell>
        <mxCell id="vkApriOtjKxWbsv6Z0I2-45" value="&lt;div&gt;N&lt;/div&gt;" style="text;html=1;strokeColor=none;fillColor=none;align=left;verticalAlign=middle;whiteSpace=wrap;rounded=0;fontColor=#ff0000;" vertex="1" parent="1">
          <mxGeometry x="910" y="125" width="13" height="16" as="geometry" />
        </mxCell>
        <mxCell id="vkApriOtjKxWbsv6Z0I2-46" value="&lt;div&gt;N&lt;/div&gt;" style="text;html=1;strokeColor=none;fillColor=none;align=left;verticalAlign=middle;whiteSpace=wrap;rounded=0;fontColor=#ff0000;" vertex="1" parent="1">
          <mxGeometry x="464" y="72" width="27" height="14" as="geometry" />
        </mxCell>
        <mxCell id="vkApriOtjKxWbsv6Z0I2-47" value="&lt;div&gt;1&lt;/div&gt;" style="text;html=1;strokeColor=none;fillColor=none;align=left;verticalAlign=middle;whiteSpace=wrap;rounded=0;fontColor=#ff0000;" vertex="1" parent="1">
          <mxGeometry x="632" y="84" width="13" height="16" as="geometry" />
        </mxCell>
        <mxCell id="vkApriOtjKxWbsv6Z0I2-48" value="&lt;div&gt;M&lt;/div&gt;" style="text;html=1;strokeColor=none;fillColor=none;align=left;verticalAlign=middle;whiteSpace=wrap;rounded=0;fontColor=#ff0000;" vertex="1" parent="1">
          <mxGeometry x="806" y="61" width="19" height="14" as="geometry" />
        </mxCell>
        <mxCell id="vkApriOtjKxWbsv6Z0I2-49" value="&lt;div&gt;N&lt;/div&gt;" style="text;html=1;strokeColor=none;fillColor=none;align=left;verticalAlign=middle;whiteSpace=wrap;rounded=0;fontColor=#ff0000;" vertex="1" parent="1">
          <mxGeometry x="812" y="-52" width="13" height="16" as="geometry" />
        </mxCell>
        <mxCell id="vkApriOtjKxWbsv6Z0I2-50" value="" style="endArrow=none;html=1;rounded=0;exitX=0.5;exitY=0;exitDx=0;exitDy=0;entryX=0.5;entryY=1;entryDx=0;entryDy=0;" edge="1" parent="1" source="vkApriOtjKxWbsv6Z0I2-35" target="x9lgvti6asZpMGQ8VtIj-6">
          <mxGeometry width="50" height="50" relative="1" as="geometry">
            <mxPoint x="1065" y="303.5" as="sourcePoint" />
            <mxPoint x="1029" y="303.5" as="targetPoint" />
          </mxGeometry>
        </mxCell>
        <mxCell id="vkApriOtjKxWbsv6Z0I2-51" value="" style="endArrow=none;html=1;rounded=0;exitX=0;exitY=0.5;exitDx=0;exitDy=0;entryX=1;entryY=0.5;entryDx=0;entryDy=0;shape=link;" edge="1" parent="1" source="vkApriOtjKxWbsv6Z0I2-6" target="vkApriOtjKxWbsv6Z0I2-3">
          <mxGeometry width="50" height="50" relative="1" as="geometry">
            <mxPoint x="743.25" y="57.79000000000002" as="sourcePoint" />
            <mxPoint x="707.25" y="57.79000000000002" as="targetPoint" />
          </mxGeometry>
        </mxCell>
        <mxCell id="vkApriOtjKxWbsv6Z0I2-52" value="" style="endArrow=none;html=1;rounded=0;entryX=0;entryY=0.5;entryDx=0;entryDy=0;shape=link;" edge="1" parent="1" source="Wl8H_iPrFYhx-jgxEYBW-6" target="vkApriOtjKxWbsv6Z0I2-3">
          <mxGeometry width="50" height="50" relative="1" as="geometry">
            <mxPoint x="457" y="38.79000000000002" as="sourcePoint" />
            <mxPoint x="493" y="38.79000000000002" as="targetPoint" />
          </mxGeometry>
        </mxCell>
        <mxCell id="vkApriOtjKxWbsv6Z0I2-53" value="project_number" style="ellipse;whiteSpace=wrap;html=1;align=center;fontColor=#ff0000;" vertex="1" parent="1">
          <mxGeometry x="855" y="14" width="105" height="40" as="geometry" />
        </mxCell>
        <mxCell id="vkApriOtjKxWbsv6Z0I2-54" value="" style="endArrow=none;html=1;rounded=0;exitX=0;exitY=0.5;exitDx=0;exitDy=0;entryX=1;entryY=1;entryDx=0;entryDy=0;" edge="1" parent="1" source="vkApriOtjKxWbsv6Z0I2-53" target="vkApriOtjKxWbsv6Z0I2-35">
          <mxGeometry width="50" height="50" relative="1" as="geometry">
            <mxPoint x="1054" y="368.5" as="sourcePoint" />
            <mxPoint x="1020" y="327.5" as="targetPoint" />
          </mxGeometry>
        </mxCell>
        <mxCell id="i0kcuomNW0cffmiGVuwt-4" value="employee" style="ellipse;whiteSpace=wrap;html=1;align=center;fontColor=#ff0000;" vertex="1" parent="1">
          <mxGeometry x="326" y="247" width="80" height="40" as="geometry" />
        </mxCell>
        <mxCell id="i0kcuomNW0cffmiGVuwt-5" value="relationship" style="ellipse;whiteSpace=wrap;html=1;align=center;" vertex="1" parent="1">
          <mxGeometry x="80" y="142.5" width="90" height="40" as="geometry" />
        </mxCell>
        <mxCell id="i0kcuomNW0cffmiGVuwt-6" value="" style="endArrow=none;html=1;rounded=0;exitX=1;exitY=0.5;exitDx=0;exitDy=0;entryX=0;entryY=1;entryDx=0;entryDy=0;" edge="1" parent="1" source="i0kcuomNW0cffmiGVuwt-12" target="CNV3EOQP-s0teQgOFq6g-13">
          <mxGeometry width="50" height="50" relative="1" as="geometry">
            <mxPoint x="118" y="259.5" as="sourcePoint" />
            <mxPoint x="233.99999999999977" y="209.5" as="targetPoint" />
          </mxGeometry>
        </mxCell>
        <mxCell id="i0kcuomNW0cffmiGVuwt-7" value="" style="endArrow=none;html=1;rounded=0;exitX=0.5;exitY=0;exitDx=0;exitDy=0;entryX=0.25;entryY=1;entryDx=0;entryDy=0;" edge="1" parent="1" source="i0kcuomNW0cffmiGVuwt-11" target="CNV3EOQP-s0teQgOFq6g-13">
          <mxGeometry width="50" height="50" relative="1" as="geometry">
            <mxPoint x="208" y="259.5" as="sourcePoint" />
            <mxPoint x="258.9999999999998" y="209.5" as="targetPoint" />
          </mxGeometry>
        </mxCell>
        <mxCell id="i0kcuomNW0cffmiGVuwt-8" value="" style="endArrow=none;html=1;rounded=0;exitX=0.5;exitY=0;exitDx=0;exitDy=0;entryX=0.797;entryY=1.032;entryDx=0;entryDy=0;entryPerimeter=0;" edge="1" parent="1" source="i0kcuomNW0cffmiGVuwt-4" target="CNV3EOQP-s0teQgOFq6g-13">
          <mxGeometry width="50" height="50" relative="1" as="geometry">
            <mxPoint x="158" y="299.5" as="sourcePoint" />
            <mxPoint x="314.6999999999998" y="209.94000000000005" as="targetPoint" />
          </mxGeometry>
        </mxCell>
        <mxCell id="i0kcuomNW0cffmiGVuwt-9" value="" style="endArrow=none;html=1;rounded=0;exitX=0;exitY=0.5;exitDx=0;exitDy=0;entryX=1;entryY=0.5;entryDx=0;entryDy=0;" edge="1" parent="1" source="CNV3EOQP-s0teQgOFq6g-13" target="i0kcuomNW0cffmiGVuwt-5">
          <mxGeometry width="50" height="50" relative="1" as="geometry">
            <mxPoint x="233.99999999999977" y="189.5" as="sourcePoint" />
            <mxPoint x="308" y="269.5" as="targetPoint" />
          </mxGeometry>
        </mxCell>
        <mxCell id="i0kcuomNW0cffmiGVuwt-10" value="Bdate" style="ellipse;whiteSpace=wrap;html=1;align=center;" vertex="1" parent="1">
          <mxGeometry x="216" y="257.5" width="80" height="40" as="geometry" />
        </mxCell>
        <mxCell id="i0kcuomNW0cffmiGVuwt-11" value="sex" style="ellipse;whiteSpace=wrap;html=1;align=center;" vertex="1" parent="1">
          <mxGeometry x="140" y="252" width="50" height="40" as="geometry" />
        </mxCell>
        <mxCell id="i0kcuomNW0cffmiGVuwt-12" value="name" style="ellipse;whiteSpace=wrap;html=1;align=center;" vertex="1" parent="1">
          <mxGeometry x="80" y="200" width="60" height="40" as="geometry" />
        </mxCell>
        <mxCell id="i0kcuomNW0cffmiGVuwt-13" value="" style="endArrow=none;html=1;rounded=0;exitX=0.5;exitY=0;exitDx=0;exitDy=0;entryX=0.581;entryY=0.994;entryDx=0;entryDy=0;entryPerimeter=0;" edge="1" parent="1" source="i0kcuomNW0cffmiGVuwt-10" target="CNV3EOQP-s0teQgOFq6g-13">
          <mxGeometry width="50" height="50" relative="1" as="geometry">
            <mxPoint x="218" y="269.5" as="sourcePoint" />
            <mxPoint x="295.5" y="210.8599999999999" as="targetPoint" />
          </mxGeometry>
        </mxCell>
        <mxCell id="i0kcuomNW0cffmiGVuwt-16" value="" style="endArrow=none;html=1;rounded=0;entryX=1;entryY=0.5;entryDx=0;entryDy=0;exitX=0;exitY=0.5;exitDx=0;exitDy=0;" edge="1" parent="1" source="vkApriOtjKxWbsv6Z0I2-6" target="CNV3EOQP-s0teQgOFq6g-9">
          <mxGeometry width="50" height="50" relative="1" as="geometry">
            <mxPoint x="412" y="98" as="sourcePoint" />
            <mxPoint x="212" y="363.5" as="targetPoint" />
          </mxGeometry>
        </mxCell>
        <mxCell id="i0kcuomNW0cffmiGVuwt-19" value="&lt;div&gt;1&lt;/div&gt;" style="text;html=1;strokeColor=none;fillColor=none;align=left;verticalAlign=middle;whiteSpace=wrap;rounded=0;fontColor=#ff0000;" vertex="1" parent="1">
          <mxGeometry x="541.5" y="148" width="19" height="14" as="geometry" />
        </mxCell>
        <mxCell id="i0kcuomNW0cffmiGVuwt-20" value="&lt;div&gt;N&lt;/div&gt;" style="text;html=1;strokeColor=none;fillColor=none;align=left;verticalAlign=middle;whiteSpace=wrap;rounded=0;fontColor=#ff0000;" vertex="1" parent="1">
          <mxGeometry x="356" y="162" width="13" height="16" as="geometry" />
        </mxCell>
        <mxCell id="i0kcuomNW0cffmiGVuwt-21" value="" style="endArrow=none;html=1;rounded=0;exitX=1;exitY=0.5;exitDx=0;exitDy=0;shape=link;entryX=0;entryY=0.5;entryDx=0;entryDy=0;" edge="1" parent="1" source="CNV3EOQP-s0teQgOFq6g-13" target="CNV3EOQP-s0teQgOFq6g-9">
          <mxGeometry width="50" height="50" relative="1" as="geometry">
            <mxPoint x="333.9999999999998" y="189.5" as="sourcePoint" />
            <mxPoint x="512" y="152.08" as="targetPoint" />
          </mxGeometry>
        </mxCell>
        <mxCell id="CNV3EOQP-s0teQgOFq6g-9" value="dependents_of" style="shape=rhombus;double=1;perimeter=rhombusPerimeter;whiteSpace=wrap;html=1;align=center;fontColor=#ff0000;" vertex="1" parent="1">
          <mxGeometry x="406" y="145" width="120" height="60" as="geometry" />
        </mxCell>
        <mxCell id="CNV3EOQP-s0teQgOFq6g-13" value="dependent" style="shape=ext;margin=3;double=1;whiteSpace=wrap;html=1;align=center;" vertex="1" parent="1">
          <mxGeometry x="235" y="155" width="106" height="40" as="geometry" />
        </mxCell>
      </root>
    </mxGraphModel>
  </diagram>
</mxfile>
